<?xml version="1.0" standalone="no"?>
<!DOCTYPE svg PUBLIC "-//W3C//DTD SVG 20010904//EN"
 "http://www.w3.org/TR/2001/REC-SVG-20010904/DTD/svg10.dtd">
<svg version="1.0" xmlns="http://www.w3.org/2000/svg"
 width="512.000000pt" height="512.000000pt" viewBox="0 0 512.000000 512.000000"
 preserveAspectRatio="xMidYMid meet">
<metadata>
Created by potrace 1.14, written by Peter Selinger 2001-2017
</metadata>
<g transform="translate(0.000000,512.000000) scale(0.100000,-0.100000)"
fill="#000000" stroke="none">
<path d="M3054 5065 c-17 -7 -69 -15 -115 -19 -46 -3 -94 -8 -106 -10 -11 -3
-43 -8 -70 -12 -26 -4 -65 -13 -87 -20 -21 -8 -49 -14 -62 -14 -14 0 -32 -4
-42 -10 -9 -5 -73 -36 -142 -68 -69 -33 -165 -88 -213 -122 -155 -111 -317
-300 -403 -470 -15 -30 -28 -56 -29 -57 -1 -1 -17 2 -36 7 -96 25 -134 27
-294 17 -85 -5 -97 -9 -202 -62 -221 -112 -349 -277 -370 -477 -6 -56 -7 -58
-42 -68 -20 -5 -54 -11 -76 -14 -52 -7 -213 -79 -298 -134 -195 -127 -332
-321 -393 -557 -34 -129 -38 -333 -10 -464 77 -367 342 -642 698 -725 91 -21
172 -29 323 -30 l130 -1 -2 -25 c-4 -43 -2 -323 2 -360 2 -19 7 -91 11 -160 8
-144 -1 -176 -58 -203 -50 -23 -88 -27 -263 -26 -244 1 -249 2 -253 24 -20
126 -131 224 -259 229 -143 6 -275 -61 -341 -173 -23 -39 -27 -57 -27 -121 1
-97 29 -164 97 -225 73 -66 176 -92 280 -70 104 22 213 113 239 200 l13 45 66
-6 c123 -11 325 -11 395 1 169 29 232 111 236 300 0 33 -2 175 -6 316 l-6 256
281 -1 280 0 0 -568 c0 -533 -1 -569 -17 -575 -62 -20 -125 -56 -153 -84 -125
-129 -86 -366 73 -444 60 -29 185 -44 222 -26 11 5 45 20 75 34 108 47 163
133 167 261 2 90 -20 147 -79 202 -34 32 -103 64 -137 64 -10 0 -20 8 -23 18
-3 14 -2 1095 1 1113 1 3 241 5 533 5 l533 -1 0 -565 0 -564 -50 -19 c-74 -27
-129 -78 -165 -151 -52 -106 -42 -225 26 -304 87 -102 247 -133 371 -72 192
95 253 353 111 474 -39 34 -150 80 -162 68 -3 -3 -6 251 -6 565 l0 570 281 0
282 1 -7 -327 c-8 -369 -5 -402 50 -457 56 -56 112 -67 329 -70 105 -1 216 2
247 5 l57 7 11 -52 c6 -29 24 -71 40 -93 33 -45 121 -101 160 -101 14 -1 36
-7 48 -14 20 -11 36 -10 106 8 45 12 103 34 129 49 83 49 147 161 147 257 0
53 -43 130 -94 168 -49 37 -143 72 -193 72 -18 0 -33 5 -33 10 0 6 -9 10 -20
10 -32 0 -183 -74 -214 -106 -25 -25 -61 -91 -79 -145 -7 -22 -57 -26 -262
-25 -151 1 -163 3 -216 27 -47 22 -60 34 -79 74 -22 46 -23 53 -15 199 5 83 9
230 9 326 l1 175 100 0 c124 0 189 8 287 34 163 42 327 140 455 270 77 77 204
257 227 319 51 139 75 212 82 247 12 65 12 68 19 115 8 50 7 189 -1 268 -13
129 -94 336 -172 439 -88 116 -221 231 -336 289 -39 20 -56 34 -57 49 0 11 -2
29 -4 40 -2 11 -7 43 -10 70 -17 142 -95 354 -180 491 -120 193 -313 372 -515
479 -47 25 -92 49 -100 54 -8 5 -33 14 -55 21 -22 7 -52 22 -67 33 -15 11 -33
17 -41 14 -21 -8 -130 21 -143 38 -7 9 -30 13 -70 12 -83 -2 -195 12 -220 28
-16 10 -26 10 -50 0z m183 -79 c3 -3 -273 -167 -427 -253 -19 -11 -134 -78
-255 -148 -121 -70 -235 -136 -253 -147 -235 -133 -389 -222 -415 -241 l-28
-19 35 70 c36 71 37 72 156 140 19 10 193 110 385 222 193 111 366 211 385
222 19 11 91 52 160 93 l125 73 64 -4 c36 -3 66 -6 68 -8z m-338 -9 c-14 -8
-83 -48 -155 -89 -456 -265 -458 -266 -419 -232 17 14 39 33 50 43 11 9 76 64
145 122 90 76 140 111 175 122 60 20 170 45 205 46 l25 1 -26 -13z m530 -37
c8 -4 -66 -52 -210 -135 -123 -70 -252 -145 -287 -166 -35 -22 -64 -39 -66
-39 -2 0 -41 -22 -87 -49 -46 -26 -156 -90 -244 -141 -210 -121 -272 -155
-263 -145 4 4 48 33 98 64 92 57 217 136 720 452 285 178 294 183 339 159z
m149 -55 c-3 -2 -187 -108 -318 -182 -114 -65 -217 -126 -228 -135 -7 -6 -15
-9 -17 -6 -3 2 43 33 100 69 58 35 125 76 148 90 216 133 292 176 304 172 8
-3 13 -7 11 -8z m131 -62 c17 -10 31 -21 31 -24 0 -5 -678 -400 -920 -536 -19
-11 -116 -67 -215 -125 -99 -58 -218 -126 -265 -153 -47 -26 -100 -56 -117
-67 -51 -31 -39 -14 15 20 26 16 326 205 667 419 341 215 652 410 690 436 39
25 73 46 77 46 3 1 20 -7 37 -16z m155 -109 c15 -14 27 -27 25 -29 -4 -3 -134
-79 -219 -128 -36 -20 -920 -530 -977 -563 -18 -11 -128 -74 -245 -141 -117
-68 -232 -134 -255 -149 -24 -14 -43 -23 -43 -21 0 3 60 42 133 87 72 46 152
96 177 111 176 112 330 209 565 357 149 93 389 244 534 336 145 91 267 166
270 166 3 0 19 -12 35 -26z m86 -114 c-14 -11 -28 -20 -32 -20 -4 0 -63 -33
-130 -73 -172 -103 -218 -129 -218 -123 0 3 35 26 78 51 42 26 128 77 191 116
110 66 164 90 111 49z m99 -74 c10 -11 1 -21 -46 -49 -56 -34 -408 -237 -623
-360 -58 -33 -117 -67 -132 -76 -14 -9 -89 -52 -165 -95 -76 -43 -149 -86
-163 -94 -14 -9 -20 -11 -15 -5 6 6 69 47 140 90 177 108 880 543 930 576 46
30 58 32 74 13z m71 -120 c-13 -11 -784 -460 -905 -525 -80 -44 -2 5 445 279
300 185 458 276 464 270 7 -7 5 -15 -4 -24z m70 -84 c0 -7 -55 -41 -220 -134
-19 -11 -87 -51 -150 -88 -213 -124 -241 -140 -236 -132 3 5 40 30 83 55 43
26 173 105 288 176 200 123 235 142 235 123z m-2745 -102 c-7 -12 -65 -43 -65
-35 0 5 61 45 68 45 2 0 0 -5 -3 -10z m2798 -4 c5 -14 -7 -21 -468 -286 -201
-116 -373 -215 -443 -256 l-27 -16 24 19 c23 18 167 107 431 269 74 45 207
127 295 182 88 56 165 101 171 101 7 1 14 -5 17 -13z m-2579 -7 c24 -11 20
-15 -97 -81 -67 -38 -126 -73 -131 -79 -6 -5 -14 -9 -19 -9 -11 0 204 179 215
180 4 0 18 -5 32 -11z m156 -44 c0 -2 -21 -16 -47 -31 -27 -15 -68 -39 -93
-54 -25 -15 -65 -39 -90 -53 -25 -13 -146 -84 -270 -156 -267 -155 -320 -184
-320 -174 0 5 22 20 48 34 26 14 151 86 277 159 127 73 246 141 265 152 19 11
60 35 90 53 54 32 132 75 137 75 2 0 3 -2 3 -5z m2480 -94 c0 -9 -28 -32 -63
-51 -34 -19 -87 -49 -117 -66 -30 -17 -212 -122 -405 -234 -846 -489 -823
-476 -810 -463 9 9 372 238 446 281 54 32 813 508 889 557 32 21 36 22 48 7 6
-9 12 -23 12 -31z m42 -126 c4 -20 -1 -29 -26 -44 -32 -19 -314 -182 -721
-416 -132 -76 -296 -171 -364 -212 -232 -137 -131 -68 222 152 194 121 368
230 387 242 149 95 486 303 491 303 4 0 9 -11 11 -25z m-772 11 c0 -2 -7 -7
-16 -10 -8 -3 -12 -2 -9 4 6 10 25 14 25 6z m-2460 -47 c-73 -64 -107 -81 -82
-43 7 11 101 72 112 73 3 0 -11 -13 -30 -30z m1070 -14 c0 -2 -10 -9 -22 -15
-22 -11 -22 -10 -4 4 21 17 26 19 26 11z m2189 -79 c-5 -5 -181 -109 -261
-155 -32 -18 -58 -30 -58 -27 0 3 30 22 66 43 99 58 104 60 179 107 39 24 72
42 74 40 2 -2 2 -6 0 -8z m74 -126 c9 -8 -94 -70 -363 -222 -41 -23 -307 -177
-720 -416 -185 -107 -187 -108 -179 -98 7 7 804 515 929 591 41 25 120 74 174
109 89 57 102 63 125 53 14 -6 30 -14 34 -17z m-3238 11 c-6 -5 -152 -99 -325
-207 -173 -109 -391 -246 -485 -305 -93 -58 -171 -106 -173 -104 -1 1 3 16 9
33 10 29 34 49 119 95 19 10 45 25 57 33 12 7 39 23 60 35 62 35 427 246 588
340 149 88 168 98 150 80z m425 -46 c0 -2 -10 -9 -22 -15 -22 -11 -22 -10 -4
4 21 17 26 19 26 11z m1656 -10 c-11 -8 -25 -15 -30 -15 -6 1 0 7 14 15 32 19
40 18 16 0z m-1751 -48 c-28 -19 -142 -92 -255 -162 -113 -70 -404 -254 -648
-407 -244 -154 -449 -281 -456 -284 -15 -6 -15 62 0 76 5 4 79 48 164 98 85
49 247 142 360 207 113 65 349 201 525 303 176 101 324 188 330 193 5 5 14 9
19 9 6 0 -12 -15 -39 -33z m3025 25 c0 -4 -73 -50 -162 -101 -90 -52 -210
-122 -268 -156 -215 -126 -201 -109 25 30 88 54 183 113 210 130 142 93 195
119 195 97z m-3765 -53 c-50 -28 -106 -60 -125 -71 l-35 -20 25 22 c87 76 117
96 154 107 75 21 71 14 -19 -38z m1010 2 c-6 -5 -149 -96 -320 -203 -170 -107
-406 -255 -523 -329 -614 -387 -764 -479 -771 -474 -5 2 -11 20 -13 38 l-4 34
221 126 c121 70 326 188 455 263 129 75 253 146 275 159 22 12 94 54 160 92
66 39 140 81 165 95 25 14 115 66 200 116 153 90 173 101 155 83z m2872 -44
c21 -19 22 -21 5 -32 -20 -15 -918 -535 -1117 -648 -38 -21 -87 -51 -108 -65
-20 -14 -39 -23 -42 -21 -2 3 58 44 133 93 75 48 351 226 612 395 261 170 480
306 485 303 6 -3 20 -14 32 -25z m103 -124 c17 -21 18 -29 8 -39 -10 -9 -429
-253 -641 -373 -18 -10 -147 -84 -287 -164 -140 -81 -246 -139 -235 -131 11 9
135 90 275 180 322 208 616 400 745 486 55 36 103 67 107 67 4 1 16 -11 28
-26z m90 -158 c0 -9 -33 -30 -160 -102 -19 -11 -123 -71 -230 -133 -107 -62
-269 -155 -360 -207 -91 -53 -170 -98 -176 -102 -44 -27 41 34 126 88 275 178
467 302 595 386 188 123 177 117 193 98 6 -9 12 -22 12 -28z m-4216 -30 c-10
-8 -23 -15 -28 -15 -6 0 -1 7 10 15 10 8 23 15 28 15 6 0 1 -7 -10 -15z m-49
-24 c-20 -19 -420 -260 -424 -255 -9 9 21 29 221 145 201 117 221 127 203 110z
m4303 -63 c-3 -21 -49 -49 -548 -335 -92 -52 -19 -2 170 118 107 68 233 150
280 181 47 31 89 57 93 57 5 1 7 -9 5 -21z m-3582 -151 c-37 -23 -145 -90
-240 -148 -538 -334 -808 -499 -815 -499 -8 0 -24 31 -19 35 2 1 134 78 293
170 582 336 741 428 785 456 25 15 50 28 55 28 6 0 -21 -18 -59 -42z m3622 -2
c-7 -5 -584 -338 -613 -353 -38 -20 36 31 195 134 102 65 234 152 295 191 104
69 110 72 118 51 4 -11 6 -22 5 -23z m9 -138 c1 -32 -2 -33 -280 -195 -154
-89 -282 -161 -284 -159 -2 3 556 387 562 387 0 0 1 -15 2 -33z m-2901 -4 c-4
-5 -29 -21 -56 -38 -79 -48 -420 -260 -912 -569 -252 -157 -463 -286 -470
-286 -7 0 -23 8 -35 18 -22 17 -18 20 384 252 224 129 417 240 428 246 11 6
103 59 205 118 101 59 204 119 230 133 40 22 106 61 195 115 32 19 43 23 31
11z m-811 -52 c-9 -9 -202 -128 -340 -210 -33 -20 -64 -39 -70 -44 -19 -15
-500 -307 -506 -307 -4 0 -9 6 -12 13 -3 10 129 91 416 257 232 133 442 256
467 271 46 29 61 36 45 20z m-636 -94 c-2 -1 -13 -9 -24 -17 -19 -14 -19 -14
-6 3 7 9 18 17 24 17 6 0 8 -1 6 -3z m1491 -2 c0 -2 -10 -9 -22 -15 -22 -11
-22 -10 -4 4 21 17 26 19 26 11z m2844 -42 c-7 -37 -4 -35 -106 -93 -51 -30
-158 -92 -238 -138 -168 -98 -175 -101 -136 -70 27 21 61 45 230 163 31 22 98
70 149 107 50 36 95 64 99 62 4 -2 4 -16 2 -31z m-4404 3 c-11 -10 -227 -143
-313 -193 -4 -2 -7 0 -7 6 0 5 37 30 83 56 45 25 118 67 162 94 86 53 98 59
75 37z m1510 10 c0 -2 -24 -19 -52 -37 -29 -18 -86 -53 -126 -78 -40 -25 -92
-58 -115 -72 -23 -15 -252 -158 -509 -318 -454 -283 -467 -290 -498 -280 -37
13 -31 23 35 59 47 26 304 175 785 453 190 110 365 211 390 225 25 14 54 31
65 38 21 15 25 16 25 10z m1027 -2 c-6 -7 -468 -306 -995 -644 l-283 -182 -79
-2 c-43 -1 -76 2 -72 6 4 3 196 115 427 248 231 133 457 264 503 291 45 27 85
49 87 49 2 0 45 25 95 55 50 30 93 55 95 55 2 0 39 21 82 47 43 26 92 55 108
65 31 18 43 23 32 12z m-567 -18 c0 -2 -55 -39 -122 -81 -68 -42 -157 -98
-198 -125 -730 -466 -966 -610 -999 -611 -20 0 -51 -2 -70 -4 -28 -3 -32 -1
-20 9 8 7 169 102 359 211 190 109 359 206 375 216 17 10 44 26 60 35 17 9
116 66 220 127 105 61 210 121 234 135 25 14 70 40 100 58 60 36 61 36 61 30z
m-1085 -25 c-6 -5 -73 -47 -150 -94 -77 -47 -286 -175 -465 -285 -251 -155
-328 -198 -338 -189 -11 9 -10 14 8 27 18 13 453 267 525 306 17 9 211 121
380 220 43 25 55 29 40 15z m1855 -36 c-7 -8 -18 -15 -24 -15 -6 0 -2 7 8 15
25 19 32 19 16 0z m-41 -28 c-2 -2 -105 -69 -229 -149 -221 -142 -339 -219
-650 -422 -233 -152 -222 -147 -290 -149 -34 -1 -66 0 -71 4 -6 3 25 27 68 52
244 142 847 490 889 513 50 27 222 127 259 150 17 10 37 11 24 1z m-2169 -11
c0 -2 -7 -7 -16 -10 -8 -3 -12 -2 -9 4 6 10 25 14 25 6z m-45 -25 c-12 -11
-603 -371 -620 -378 -7 -2 -15 0 -19 5 -3 5 54 42 127 84 73 41 177 101 232
133 55 32 111 65 125 72 14 8 54 32 90 53 66 40 81 47 65 31z m3856 -93 c-18
-43 -51 -68 -210 -155 -25 -13 -62 -34 -81 -45 -19 -12 -30 -16 -25 -10 9 10
327 251 332 252 1 0 -6 -19 -16 -42z m-1501 28 c0 -2 -42 -31 -92 -64 -927
-602 -848 -554 -911 -556 -32 -2 -60 0 -62 3 -2 4 17 18 43 31 26 13 58 32 72
41 20 13 415 241 603 348 17 10 102 59 187 109 166 97 160 94 160 88z m560
-160 c-8 -7 -105 -74 -215 -148 -110 -74 -258 -174 -329 -223 -135 -93 -136
-93 -246 -86 -11 1 782 468 800 470 2 1 -2 -5 -10 -13z m250 -30 c-8 -8 -53
-41 -100 -73 -47 -33 -179 -126 -293 -207 l-209 -148 -69 -2 c-38 -1 -69 0
-69 3 0 3 15 14 33 25 250 144 449 259 567 329 155 91 162 95 140 73z m-580 0
c0 -2 -64 -46 -142 -97 -79 -51 -219 -143 -313 -204 -204 -134 -200 -132 -248
-125 l-37 5 96 55 c53 30 114 65 136 77 21 13 127 74 236 136 108 63 213 124
232 136 37 22 40 23 40 17z m-294 -23 c-3 -4 -49 -34 -101 -67 -53 -34 -192
-123 -310 -199 -203 -130 -229 -143 -285 -138 -8 1 8 14 35 29 47 27 456 262
595 343 65 38 79 45 66 32z m848 -219 l-247 -187 -78 -1 c-43 -1 -75 1 -71 5
4 4 99 60 212 125 113 65 252 146 310 180 58 35 108 63 112 63 5 1 -103 -83
-238 -185z m-2129 167 c-6 -5 -135 -85 -287 -179 -247 -153 -328 -196 -328
-174 0 6 608 361 620 362 2 0 0 -4 -5 -9z m2495 -104 c-8 -8 -49 -42 -90 -78
-41 -35 -96 -82 -121 -105 -39 -36 -56 -43 -117 -54 -39 -6 -78 -10 -86 -8
-12 2 403 255 424 257 2 1 -2 -5 -10 -12z m-3232 -22 c-13 -13 -281 -175 -289
-175 -5 0 -9 -4 -9 -10 0 -5 -5 -10 -11 -10 -6 0 -23 -9 -39 -20 -15 -11 -30
-17 -34 -13 -5 5 55 53 68 53 2 0 37 19 78 43 40 24 80 46 88 50 8 4 44 25 80
47 61 37 80 47 68 35z m3551 -921 c-3 -10 -142 -94 -148 -89 -3 4 40 66 72
102 17 19 22 20 49 9 16 -7 28 -17 27 -22z m-4446 -4 c8 -7 -17 -24 -117 -80
l-40 -22 25 34 c14 18 34 45 45 60 15 21 25 25 49 21 17 -3 34 -9 38 -13z
m101 -88 c3 -5 -8 -16 -25 -26 -32 -19 -38 -12 -12 16 17 20 29 23 37 10z
m4443 -36 c-2 -5 -31 -26 -65 -47 -66 -40 -66 -35 3 44 36 40 41 44 53 29 7
-9 11 -21 9 -26z m-256 -95 c-58 -69 -70 -78 -82 -60 -5 8 -9 19 -9 24 0 8
114 83 128 85 2 0 -14 -22 -37 -49z m-4461 6 c0 -2 -13 -16 -30 -32 -19 -19
-30 -24 -30 -14 0 8 12 21 28 31 31 19 32 19 32 15z m4543 -141 c-33 -40 -52
-51 -67 -36 -5 5 -8 12 -5 14 5 6 93 56 97 56 2 0 -9 -15 -25 -34z m-4299 11
c-6 -16 -75 -57 -95 -57 -10 0 78 62 98 69 1 1 0 -5 -3 -12z m1540 -238 c25
-12 24 -13 -49 -55 -41 -24 -77 -44 -80 -44 -2 0 11 21 31 48 30 39 46 53 71
61 1 1 13 -4 27 -10z m1273 -66 c3 -9 -78 -63 -94 -63 -2 0 13 18 33 40 36 39
54 46 61 23z m-1167 -27 c0 -2 -7 -7 -16 -10 -8 -3 -12 -2 -9 4 6 10 25 14 25
6z m1220 -91 c-7 -8 -17 -15 -22 -15 -11 0 14 29 26 30 5 0 3 -7 -4 -15z
m-320 2 c0 -2 -11 -14 -25 -27 -19 -18 -25 -20 -25 -8 0 8 10 20 23 26 26 13
27 13 27 9z m-860 -21 c0 -2 -8 -10 -17 -17 -16 -13 -17 -12 -4 4 13 16 21 21
21 13z m903 -117 c-18 -19 -36 -29 -43 -24 -8 5 1 15 26 30 52 31 54 30 17 -6z
m-1173 -24 c-22 -23 -37 -32 -44 -25 -5 5 -8 11 -5 13 12 10 75 47 78 47 3 0
-10 -16 -29 -35z"/>
</g>
</svg>
